<svg width="120" height="120" viewBox="0 0 120 120" fill="none" xmlns="http://www.w3.org/2000/svg">
<g clip-path="url(#clip0_4751_2309)">
<path d="M43.7109 0.421848C43.125 0.796848 42.3984 2.15622 39.4922 8.32029C35.8125 16.125 35.2266 17.0625 33.3516 18C32.1328 18.6093 32.2031 18.5859 24.1172 19.8047C20.2031 20.3906 16.7578 20.9531 16.4531 21.0937C15.7969 21.375 15 22.664 15 23.4843C15 23.8359 15.1172 24.3984 15.2578 24.75C15.375 25.125 18.0469 28.0078 21.1875 31.1718C26.3203 36.3515 26.9297 37.0547 27.375 38.2734C27.6562 39.0234 27.8906 40.1484 27.8906 40.7812C27.8906 41.414 27.3516 45.164 26.7188 49.1015C25.2891 57.8906 25.2656 58.125 26.3672 59.2265C27.0938 59.9531 27.3047 60.0468 28.0781 59.9297C28.5938 59.8593 31.4531 58.4531 35.0391 56.4843C43.0547 52.0781 43.1484 52.0312 45 52.0312C46.8516 52.0312 47.0859 52.1484 55.1953 56.6015C58.5703 58.4531 61.4297 59.8593 61.9219 59.9297C62.6953 60.0468 62.9062 59.9531 63.6328 59.2265C64.7344 58.125 64.7109 57.914 63.2812 49.125C62.6484 45.1875 62.1094 41.4375 62.1094 40.7812C62.1094 40.1484 62.3438 39.0234 62.625 38.2734C63.0703 37.0547 63.6797 36.3515 68.8125 31.1718C71.9531 28.0078 74.625 25.125 74.7422 24.75C74.8828 24.3984 75 23.8359 75 23.4843C75 22.7343 74.2734 21.4453 73.6641 21.1406C73.4297 21 69.9141 20.414 65.8594 19.8047C61.8047 19.1953 57.9141 18.4922 57.2578 18.2343C54.9375 17.3906 54.3984 16.5937 50.5078 8.32029C47.6016 2.17966 46.875 0.796848 46.2891 0.445286C45.3984 -0.117214 44.6016 -0.117214 43.7109 0.421848Z" fill="#828282"/>
<path d="M13.9691 55.4297C11.5316 66.9609 9.60973 76.5 9.70348 76.5938C9.86755 76.7578 109.993 97.9922 110.086 97.875C110.25 97.7344 119.813 51.9375 119.93 50.8594C120.188 48.1641 118.266 45.3047 115.641 44.4609C115.008 44.25 108.961 42.9141 102.188 41.5078C95.4144 40.0781 85.6644 38.0156 80.5082 36.9375L71.1332 34.9453L68.9769 37.0781C67.7816 38.2734 66.68 39.5391 66.5394 39.9141C66.2816 40.5234 66.4457 41.7891 67.5941 48.9609C68.8597 56.625 68.9535 57.4219 68.6957 58.5938C67.9691 61.9453 65.2738 64.2188 61.9925 64.2188C61.3129 64.2188 60.4222 64.1016 59.9769 63.9375C59.555 63.7969 56.1332 61.9922 52.4066 59.9531C48.6097 57.8906 45.3519 56.25 45.0004 56.25C44.6722 56.25 41.4847 57.8438 37.7816 59.8594C34.1254 61.8516 30.68 63.6562 30.1175 63.8906C27.0941 65.0391 23.1566 63.2812 21.7972 60.1406C20.9535 58.1953 20.9769 57.6328 22.4066 48.9141C23.5785 41.7656 23.7191 40.5234 23.4613 39.9141C23.3207 39.5391 22.1019 38.1562 20.7894 36.8437L18.3988 34.4531L13.9691 55.4297ZM100.993 47.8125C104.672 48.5859 108.118 49.4062 108.633 49.6641C110.977 50.7422 112.266 52.7344 112.266 55.2187C112.266 56.7188 110.602 65.1328 110.039 66.4688C109.571 67.5938 108.305 68.8828 107.016 69.5391C105.164 70.5 103.828 70.3828 96.1644 68.7188C92.5316 67.9453 89.1566 67.0781 88.641 66.8203C87.5394 66.2578 86.1566 64.7578 85.641 63.5859C85.4535 63.0938 85.266 62.1094 85.2425 61.4062C85.2191 59.5547 87.0941 51 87.8441 49.6172C88.8285 47.7891 91.0785 46.4297 93.141 46.4062C93.7504 46.4062 97.2894 47.0391 100.993 47.8125ZM87.0941 73.3594C97.5004 75.5625 106.196 77.4609 106.43 77.6016C107.555 78.1875 107.672 79.875 106.664 80.8828C106.289 81.2578 105.774 81.5625 105.539 81.5625C105.305 81.5625 101.907 80.8828 97.9691 80.0391C94.0316 79.1953 85.3363 77.3672 78.6332 75.9375C67.43 73.5703 66.3988 73.3125 65.93 72.7734C65.2269 71.9531 65.2504 70.9922 66.0004 70.1016C66.4691 69.5391 66.7972 69.375 67.4066 69.375C67.8519 69.375 76.7113 71.1797 87.0941 73.3594ZM94.9222 83.7891C105.164 85.9453 105.282 85.9922 105.61 87.5391C105.774 88.3594 105.071 89.4375 104.133 89.7891C103.711 89.9297 101.18 89.4844 94.1488 88.0078C88.9691 86.9063 84.4691 85.9453 84.1879 85.8984C82.8285 85.5703 82.1019 83.9297 82.7582 82.7109C83.0629 82.125 84.3285 81.5625 84.9613 81.7031C85.2191 81.75 89.6957 82.6875 94.9222 83.7891Z" fill="black"/>
<path d="M92.3205 50.9766C91.5236 51.4219 91.3596 51.8906 90.3752 56.6016C89.2736 61.8047 89.2971 62.2969 90.5861 63C91.2893 63.3516 103.196 65.8594 104.274 65.8594C105.797 65.8594 106.055 65.3438 107.11 60.375C107.625 57.9609 108.047 55.7109 108.047 55.3594C108.047 54.4688 107.485 53.7656 106.571 53.4609C105.68 53.1562 93.633 50.625 93.2111 50.625C93.0705 50.6484 92.6486 50.7891 92.3205 50.9766Z" fill="#4B4B4B"/>
<path d="M5.17986 51.5859C3.84392 51.8438 2.32048 52.7578 1.40642 53.8359C-0.0467028 55.6172 0.000172176 54.6797 0.000172176 81.0234V105L24.9142 104.977C38.6017 104.977 49.7111 104.93 49.5705 104.883C49.4533 104.812 40.6174 102.938 29.9299 100.688C8.55486 96.1641 8.88299 96.2578 6.53924 93.9844C4.54705 92.0156 3.28142 89.1094 3.28142 86.4375C3.28142 85.8047 4.87517 77.8125 6.79705 68.6484C8.74236 59.4844 10.3127 51.8438 10.3127 51.6562C10.3127 51.3984 9.86736 51.3281 8.27361 51.3516C7.12517 51.375 5.74236 51.4688 5.17986 51.5859Z" fill="black"/>
<path d="M8.55478 81.1406C8.10947 82.4297 7.50009 86.4844 7.64072 87.2812C7.99228 89.3906 9.58603 91.5 11.4142 92.25C12.8438 92.8594 100.828 111.328 102.188 111.328C104.508 111.305 106.383 110.25 107.531 108.305C108.164 107.203 109.336 102.422 109.031 102.164C108.938 102.07 106.547 101.531 103.711 100.945C100.875 100.359 89.3204 97.9219 78.047 95.5312C66.7735 93.1641 54.4923 90.5625 50.7423 89.7656C42.6563 88.0547 33.7735 86.1797 26.3673 84.6094C23.4142 83.9766 18.3985 82.9219 15.2345 82.2656C12.0704 81.6094 9.30478 81 9.07041 80.9531C8.85947 80.8828 8.62509 80.9766 8.55478 81.1406Z" fill="#4B4B4B"/>
<path d="M0 111.914C0 114.023 0.09375 114.867 0.46875 115.828C1.07812 117.422 2.57812 118.945 4.17188 119.531C5.39062 120 6.04688 120 51.3047 120C91.0781 120 97.3359 119.953 98.3438 119.648C99.7266 119.25 101.32 117.938 101.953 116.719L102.398 115.828L101.297 115.664C99.9609 115.477 97.0312 114.891 81.9609 111.68L70.2891 109.219H35.1328H0V111.914Z" fill="#4B4B4B"/>
</g>
<defs>
<clipPath id="clip0_4751_2309">
<rect width="120" height="120" fill="white"/>
</clipPath>
</defs>
</svg>
