<svg width="120" height="120" viewBox="0 0 120 120" fill="none" xmlns="http://www.w3.org/2000/svg">
<path d="M80.039 0.140549C71.6249 1.45305 65.1327 7.1718 62.7655 15.3984C62.3202 16.9687 62.2265 17.7656 62.2499 20.9765C62.2499 24.3749 62.3202 24.914 62.9061 26.8359C64.0546 30.5624 64.8983 31.8281 73.9452 43.3593C78.6561 49.3593 82.5936 54.2812 82.7108 54.3281C82.8983 54.3984 98.1561 35.1796 99.6796 32.9531C100.781 31.3593 102.141 28.4765 102.68 26.6718C103.383 24.2109 103.547 19.289 103.008 16.6171C101.461 8.95305 95.5311 2.64836 87.9843 0.679611C86.1796 0.210861 81.6093 -0.0938263 80.039 0.140549ZM86.3202 6.70305C92.9296 8.2968 97.6405 14.7187 97.1718 21.5156C96.5155 31.4296 86.4374 37.8046 77.3436 34.0546C70.1718 31.1249 66.6093 23.2499 69.1171 15.9843C69.914 13.6874 71.1093 11.9062 72.9608 10.1484C74.3905 8.81243 76.828 7.3593 78.5858 6.7968C80.6483 6.14055 83.8593 6.09368 86.3202 6.70305Z" fill="#828282"/>
<path d="M56.4375 8.46089C51.1875 8.81245 45.0703 10.2421 40.3125 12.2109C39.0234 12.75 37.9688 13.2187 37.9688 13.2656C37.9688 13.3359 38.3203 13.8984 38.7656 14.5546C39.2109 15.1875 39.6562 15.914 39.7266 16.1718C39.9141 16.7812 40.0312 16.7812 42.4453 15.7968C46.875 14.039 51.3281 13.0078 56.3203 12.5859C58.2891 12.4218 59.5312 12.2343 59.5312 12.0703C59.5312 11.9296 59.9062 11.0625 60.3516 10.1015C60.7969 9.16401 61.1719 8.3437 61.1719 8.29683C61.1719 8.17964 59.9531 8.22651 56.4375 8.46089Z" fill="black"/>
<path d="M24.1406 12.7969C21.3281 13.5469 18.9141 15.6328 17.5078 18.4922C16.8047 19.9688 16.7578 20.1797 16.7578 22.7344C16.7578 25.1953 16.8047 25.5469 17.4141 26.8359C18.0234 28.125 26.6016 39.8438 26.9297 39.8438C27.2344 39.8203 35.5312 28.4531 36.1641 27.1875C40.0312 19.3828 32.625 10.5234 24.1406 12.7969ZM28.8281 19.1016C30.1875 19.8047 30.9375 21.1172 30.9375 22.875C30.9375 24.6562 29.8125 26.1328 28.0078 26.7188C26.25 27.3047 24.0937 26.3203 23.2266 24.5625C22.6172 23.2734 22.5937 22.2188 23.2031 20.9766C24.2109 18.8906 26.7422 18.0703 28.8281 19.1016Z" fill="#828282"/>
<path d="M14.9062 34.7578C12.4453 39.2344 10.9688 43.0312 9.82031 47.6953C9.11719 50.625 8.4375 55.0312 8.4375 56.8594V57.8906H10.4297H12.3984L12.5156 57.1172C12.5859 56.7188 12.7031 55.6172 12.7734 54.7266C13.1719 50.0156 14.9531 43.8984 17.3672 38.9531L18.7734 36.0703L17.5781 34.4531C16.8984 33.5391 16.2656 32.8125 16.1719 32.8125C16.0547 32.8125 15.4922 33.6797 14.9062 34.7578Z" fill="black"/>
<path d="M102.984 35.3672L101.789 37.1953L102.492 38.5781C105.516 44.5547 107.227 51.375 107.508 58.4063L107.648 62.1094H109.594H111.516L111.68 61.3828C111.891 60.4219 111.633 55.875 111.188 52.7344C110.391 47.2031 108.773 42.0703 106.219 36.9609C105.281 35.0625 104.438 33.5156 104.344 33.5391C104.25 33.5391 103.641 34.3594 102.984 35.3672Z" fill="black"/>
<path d="M45.5156 51.7266L45.5859 53.7891H47.5781H49.5703L49.6406 51.7266L49.7109 49.6875H47.5781H45.4453L45.5156 51.7266Z" fill="black"/>
<path d="M53.9062 51.7969V53.9062H55.8984H57.8906V51.7969V49.6875H55.8984H53.9062V51.7969Z" fill="black"/>
<path d="M62.1094 51.7969V53.9062H64.1016H66.0938V51.7969V49.6875H64.1016H62.1094V51.7969Z" fill="black"/>
<path d="M4.21875 82.7344V103.359L6.98438 103.336L9.72656 103.312L10.8984 101.531C13.4297 97.6875 18.1406 95.1562 22.7344 95.1562C26.3672 95.1562 30.2812 96.8203 32.9062 99.4688C33.8203 100.383 34.8281 101.625 35.1562 102.234L35.7422 103.359H46.8047H57.8906V82.7344V62.1094H49.6875H41.4844V69.8438C41.4844 74.0859 41.3906 77.5781 41.2734 77.5781C41.1797 77.5781 38.7891 76.4766 36 75.1172L30.9141 72.6562L25.7812 75.2344L20.625 77.8125V69.9609V62.1094H12.4219H4.21875V82.7344Z" fill="black"/>
<path d="M24.8438 66.5625C24.8438 69 24.9141 71.0156 25.0312 70.9922C25.125 70.9922 26.5078 70.3125 28.125 69.5156L31.0547 68.0156L34.0312 69.5156C35.6719 70.3359 37.0781 71.0156 37.1484 71.0156C37.2188 71.0156 37.2656 69 37.2656 66.5625V62.1094H31.0547H24.8438V66.5625Z" fill="#4B4B4B"/>
<path d="M106.312 66.7969C103.641 67.7578 101.484 69.7266 100.242 72.375C99 75.0234 99.0703 78.4453 100.43 81.1172C100.711 81.7266 102.914 84.8203 105.305 88.0078L109.664 93.7969L114.211 87.7031C119.156 81.0937 119.719 80.0859 119.93 77.2266C120.258 73.0781 118.008 69.2109 114.187 67.3125C112.547 66.5156 112.242 66.4453 110.062 66.375C108.141 66.3281 107.437 66.3984 106.312 66.7969ZM111.984 73.1953C114.234 74.6719 114.305 78.1875 112.102 79.8516C111.164 80.5781 109.453 80.8125 108.211 80.4141C107.156 80.0625 106.055 78.8203 105.68 77.6016C104.625 74.0391 108.82 71.0859 111.984 73.1953Z" fill="#828282"/>
<path d="M62.1094 86.9531V99.3516L63.5859 98.25C68.2031 94.7578 73.7344 94.2422 78.9609 96.8203C81.2109 97.9219 83.5313 100.078 84.7266 102.141L85.4297 103.359H87.9141H90.4219L88.8516 97.1953L87.3047 91.0547L80.1563 90.9375C75.1875 90.8672 72.8672 90.7266 72.5156 90.5391C72.2344 90.375 71.6953 89.8828 71.2969 89.4375C70.4063 88.4297 70.2188 87.375 70.3359 83.9531C70.4297 81.7031 70.5 81.3047 71.0156 80.5547C71.3438 80.0859 72.0234 79.4766 72.5391 79.1719C73.4297 78.6562 73.7344 78.6328 78.8203 78.5625C81.75 78.5156 84.1406 78.3984 84.1406 78.3281C84.1172 77.6016 83.3672 75.5391 82.9453 75.0938L82.4297 74.5312H72.2578H62.1094V86.9531Z" fill="black"/>
<path d="M74.5312 84.8438V86.9531H80.3906C83.625 86.9531 86.25 86.9062 86.25 86.8359C86.25 86.7656 86.0156 85.8047 85.7578 84.7266L85.2656 82.7344H79.8984H74.5312V84.8438Z" fill="black"/>
<path d="M97.5469 89.1093C96.6328 90.3046 95.1328 92.0625 94.1953 93L92.5312 94.7343L93.0703 96.8671C93.3516 98.0625 93.6328 99.0703 93.6797 99.1172C93.9609 99.4687 101.719 91.0078 101.719 90.3515C101.719 90.0937 99.4687 86.9531 99.2812 86.9531C99.2344 86.9531 98.4609 87.9374 97.5469 89.1093Z" fill="black"/>
<path d="M19.6174 99.8437C15.7033 101.086 12.8439 104.672 12.4924 108.75C11.9299 115.383 17.9064 120.914 24.3752 119.812C27.2111 119.32 29.4142 117.961 31.1017 115.711C35.3205 109.969 32.3439 101.531 25.4299 99.7031C23.7892 99.2578 21.2345 99.3281 19.6174 99.8437ZM24.9845 106.172C27.0939 107.484 27.4924 110.344 25.8517 112.289C25.008 113.273 24.1174 113.672 22.7345 113.672C21.0236 113.672 19.7814 112.922 18.9845 111.352C18.5861 110.578 18.633 108.75 19.0549 107.906C19.547 106.969 20.6486 105.961 21.4689 105.703C22.4299 105.398 24.0705 105.609 24.9845 106.172Z" fill="#828282"/>
<path d="M69.3283 99.8203C61.9455 102.258 59.6955 111.352 65.0861 116.883C67.3361 119.203 70.8752 120.352 74.0627 119.813C82.9924 118.289 85.8049 106.898 78.633 101.438C76.8752 100.102 75.258 99.5625 72.7736 99.4453C71.1564 99.3985 70.3361 99.4688 69.3283 99.8203ZM73.6174 105.703C75.5627 106.242 76.9221 108.68 76.4064 110.625C76.1252 111.703 75.2111 112.852 74.2736 113.32C73.4299 113.766 71.4142 113.766 70.5705 113.32C68.883 112.453 67.9455 110.367 68.4611 108.563C69.0939 106.289 71.3205 105.07 73.6174 105.703Z" fill="#828282"/>
<path d="M0 109.688V111.797H4.17188H8.34375V109.688V107.578H4.17188H0V109.688Z" fill="black"/>
<path d="M37.1484 109.688V111.797H47.5781H58.0078V109.688V107.578H47.5781H37.1484V109.688Z" fill="black"/>
<path d="M86.8359 109.688V111.797H88.8984H90.9375V109.688V107.578H88.8984H86.8359V109.688Z" fill="black"/>
</svg>
