<svg width="120" height="120" viewBox="0 0 120 120" fill="none" xmlns="http://www.w3.org/2000/svg">
<path d="M30.0001 1.52344C29.8126 1.57031 28.8517 1.73438 27.8907 1.875C23.6485 2.55469 18.422 4.85156 14.7188 7.61719C12.211 9.51562 8.60166 13.2656 7.03135 15.6094C6.3751 16.6406 5.20322 18.7266 4.45322 20.2734C-0.656151 30.8438 -1.38271 43.0078 2.48447 54.4922C3.09385 56.3672 5.08604 60.7969 5.76572 61.8281L6.11729 62.3672L7.14854 61.125C7.71104 60.4453 8.46104 59.6484 8.83604 59.3906C13.5001 55.9453 19.5938 57.3984 21.9845 62.5312C22.5235 63.6797 22.6173 64.1719 22.6173 65.9766C22.6173 67.7578 22.5235 68.2969 22.0079 69.3984L21.3751 70.7109L22.547 69.9141C26.9532 66.9609 32.8126 68.6484 35.1095 73.5469C35.6485 74.6953 35.7423 75.1875 35.7423 76.9922C35.7423 78.7734 35.6251 79.3125 35.1095 80.4375L34.5001 81.75L35.5548 80.9531C37.0079 79.8516 38.7892 79.3828 40.9923 79.5C43.2423 79.6406 44.6251 80.2266 46.2657 81.7969C48.0938 83.5312 48.8438 85.3125 48.8438 87.8906C48.8673 89.5781 48.7501 90.0938 48.211 91.2656C47.6017 92.6016 47.6017 92.625 48.0938 92.25C48.961 91.6406 50.6954 90.7734 51.422 90.6094C51.8204 90.5156 52.8282 90.4453 53.672 90.4453C58.8751 90.4688 62.9063 95.4141 61.8751 100.477C61.4532 102.445 60.961 103.289 58.2892 106.477C56.9767 108.047 55.7579 109.523 55.5938 109.734C55.3126 110.062 55.4532 110.227 56.672 111.047C57.422 111.562 59.4142 113.156 61.0782 114.586C65.0392 117.984 65.9767 118.453 68.9063 118.477C70.8282 118.477 71.3204 118.383 72.4688 117.844C74.1798 117.047 75.797 115.43 76.5938 113.719C77.1563 112.547 77.2267 112.078 77.2267 110.039C77.2267 107.977 77.1563 107.531 76.6173 106.453L76.0079 105.234L76.8048 105.844C80.1563 108.398 84.6095 108.281 87.6329 105.562C88.3829 104.883 89.086 103.922 89.5782 102.938C90.2813 101.531 90.3517 101.18 90.3517 99.375C90.3517 97.7109 90.2345 97.1484 89.7188 96.0234L89.086 94.6875L89.9767 95.3906C91.8048 96.8672 94.7579 97.4062 97.172 96.6797C101.93 95.2734 104.344 89.9531 102.234 85.4766L101.531 83.9297L102.445 84.6094C104.649 86.1797 108.047 86.5781 110.695 85.5703C112.477 84.8672 114.539 82.9688 115.43 81.1641C116.086 79.9219 116.133 79.5938 116.133 77.3438C116.133 75.0703 116.086 74.7891 115.43 73.5234C115.055 72.7734 113.414 70.5938 111.797 68.6484L108.867 65.1094L94.5704 53.25C86.7188 46.7344 79.7345 40.9219 79.0548 40.3594L77.836 39.3516L73.6876 47.625C69.6329 55.7109 69.4923 55.9453 67.8517 57.5859C62.6017 62.8594 54.5157 62.9531 49.3595 57.7969C46.6173 55.0781 45.4688 52.3125 45.4688 48.4688C45.4688 46.9453 45.6095 45.9844 46.0313 44.7188C46.336 43.7812 48.9845 37.8984 51.9142 31.6406L57.2345 20.2734L56.6017 18.2812C55.8517 15.9609 54.4688 13.125 53.1563 11.1797C49.0313 5.10938 41.0626 1.33594 32.6251 1.42969C31.3829 1.45312 30.1876 1.5 30.0001 1.52344Z" fill="black"/>
<path d="M86.3906 1.89839C79.6172 2.62495 72.7031 6.60933 69.2109 11.7187C67.5937 14.1328 66.1172 17.4843 65.2969 20.7187C64.875 22.3359 63.3516 25.8281 59.0391 35.039C53.5781 46.7109 53.3438 47.2968 53.3438 48.6328C53.3438 53.0156 58.1953 55.3593 61.8281 52.7343C62.625 52.1484 63.3516 50.8828 67.7344 42.2812C70.4766 36.8671 72.8906 32.2734 73.1016 32.0156C74.1797 30.7968 76.9453 30.2343 78.3516 30.9609C78.7031 31.1484 86.3672 37.5234 95.4141 45.1171C104.437 52.7343 111.891 58.9687 111.984 58.9921C112.148 59.0625 114 55.875 115.195 53.4609C116.953 49.9218 118.641 44.7656 119.461 40.4296C120.07 37.2187 120 30.375 119.344 27.375C118.383 22.9687 116.766 19.1484 114.305 15.4687C112.758 13.1484 108.187 8.62495 105.82 7.05464C99.7734 3.0937 92.6953 1.19527 86.3906 1.89839Z" fill="#828282"/>
<path d="M12.047 63.2578C11.2032 63.7735 5.97668 69.9844 5.62512 70.875C4.7345 73.2188 6.39856 75.7735 8.83606 75.7969C10.7111 75.8204 11.2736 75.4219 14.2736 71.8594C15.797 70.0547 17.1564 68.3204 17.3204 68.0391C17.7423 67.2188 17.6251 65.3672 17.1095 64.5C16.1251 62.8828 13.6642 62.2735 12.047 63.2578Z" fill="#828282"/>
<path d="M25.7343 74.0625C24.6796 74.3906 24.0937 74.9531 21.2343 78.3515C18.2343 81.9375 17.8359 82.7344 18.2812 84.4219C18.9374 86.8594 21.9609 87.8672 24.0937 86.3437C25.1015 85.6406 29.9999 79.5937 30.2577 78.7031C30.7499 77.1562 29.9765 75.1172 28.664 74.4375C27.7499 73.9687 26.5077 73.8046 25.7343 74.0625Z" fill="#828282"/>
<path d="M38.6722 84.9141C38.0863 85.125 37.1722 85.9922 35.3441 88.125C33.9378 89.7422 32.5316 91.4531 32.2035 91.9219C30.3988 94.4766 31.9925 97.7344 35.0394 97.7344C35.7191 97.7344 36.5394 97.5703 36.9847 97.3359C38.1097 96.7031 43.2894 90.4219 43.5941 89.2969C44.0394 87.6094 43.1957 85.7578 41.6253 85.0547C40.5238 84.5625 39.8207 84.5156 38.6722 84.9141Z" fill="#828282"/>
<path d="M51.3283 96.0704C50.5783 96.4688 45.5861 102.164 44.8361 103.453C44.344 104.297 44.4611 106.242 45.0705 107.133C46.0549 108.633 48.1408 109.172 49.8283 108.375C50.6018 108 54.7502 103.383 56.1096 101.367C57.2346 99.7032 56.7893 97.5469 55.0315 96.2579C54.1408 95.6016 52.3596 95.5079 51.3283 96.0704Z" fill="#828282"/>
</svg>
